<svg xmlns="http://www.w3.org/2000/svg" viewBox="0 0 34 38"><defs><style>.cls-1{fill:#003082;}</style></defs><title>account</title><g id="Laag_2" data-name="Laag 2"><g id="Laag_1-2" data-name="Laag 1"><g id="VRM2-OPDR-1-Huisstijl-toepassen-op-het-web"><g id="Artboard"><g id="icons"><g id="download-"><path id="Shape-64" class="cls-1" d="M17,20c-4.4,0-8-4-8-9V9c0-5,3.6-9,8-9s8,4,8,9v2C25,16,21.4,20,17,20ZM17,2c-3.4,0-6,3.2-6,7v2c0,3.8,2.6,7,6,7s6-3.2,6-7V9C23,5.2,20.4,2,17,2Z"/><path id="Shape-65" class="cls-1" d="M18,38H0V32c0-4.8,4-10.4,9-10.4a1,1,0,0,1,0,2c-3.8,0-7,4.6-7,8.4v4H18a1,1,0,0,1,0,2Z"/><path id="Shape-66" class="cls-1" d="M34,38H16a1,1,0,0,1,0-2H32V32c0-3.8-3.2-8.4-7-8.4a1,1,0,0,1,0-2c5,0,9,5.6,9,10.4Z"/></g></g></g></g></g></g></svg>