<svg xmlns="http://www.w3.org/2000/svg" viewBox="0 0 69.44 74.89"><defs><style>.cls-1{fill:#003082;}</style></defs><title>agenda</title><g id="Laag_2" data-name="Laag 2"><g id="Laag_1-2" data-name="Laag 1"><path class="cls-1" d="M62.68,5.5V2.63A2.64,2.64,0,0,0,60.05,0H57.87a2.64,2.64,0,0,0-2.63,2.63V5.45h-17V2.63A2.64,2.64,0,0,0,35.63,0H33.46a2.64,2.64,0,0,0-2.63,2.63V5.45h-17V2.63A2.64,2.64,0,0,0,11.22,0H9A2.64,2.64,0,0,0,6.41,2.63V5.55A7.62,7.62,0,0,0,0,13.1V67.23a7.67,7.67,0,0,0,7.66,7.66H61.78a7.66,7.66,0,0,0,7.66-7.66V13.1A7.66,7.66,0,0,0,62.68,5.5ZM57.24,2.63A.63.63,0,0,1,57.87,2h2.18a.63.63,0,0,1,.63.63v7.62a.63.63,0,0,1-.63.63H57.87a.63.63,0,0,1-.63-.63Zm-24.42,0A.63.63,0,0,1,33.46,2h2.18a.63.63,0,0,1,.63.63v7.62a.63.63,0,0,1-.63.63H33.46a.63.63,0,0,1-.63-.63Zm-24.42,0A.63.63,0,0,1,9,2h2.18a.63.63,0,0,1,.63.63v7.62a.63.63,0,0,1-.63.63H9a.63.63,0,0,1-.63-.63Zm-2,5v2.67A2.64,2.64,0,0,0,9,12.89h2.18a2.64,2.64,0,0,0,2.63-2.63V7.45h17v2.81a2.64,2.64,0,0,0,2.63,2.63h2.18a2.64,2.64,0,0,0,2.63-2.63V7.45h17v2.81a2.64,2.64,0,0,0,2.63,2.63h2.18a2.64,2.64,0,0,0,2.63-2.63V7.52a5.66,5.66,0,0,1,4.76,5.58v9.73H2V13.1A5.63,5.63,0,0,1,6.41,7.59Zm55.38,65.3H7.66A5.66,5.66,0,0,1,2,67.23V24.83H67.44v42.4A5.66,5.66,0,0,1,61.79,72.89Z"/><path class="cls-1" d="M8.86,41.21H20.08V30H8.86Zm2-9.22h7.22v7.22H10.86Z"/><path class="cls-1" d="M22.24,41.21H33.46V30H22.24Zm2-9.22h7.22v7.22H24.24Z"/><path class="cls-1" d="M35.63,41.21H46.85V30H35.63Zm2-9.22h7.22v7.22H37.63Z"/><path class="cls-1" d="M8.86,54.85H20.08V43.63H8.86Zm2-9.22h7.22v7.22H10.86Z"/><path class="cls-1" d="M22.24,54.85H33.46V43.63H22.24Zm2-9.22h7.22v7.22H24.24Z"/><path class="cls-1" d="M35.63,54.85H46.85V43.63H35.63Zm2-9.22h7.22v7.22H37.63Z"/><path class="cls-1" d="M35.63,68.49H46.85V57.27H35.63Zm2-9.22h7.22v7.22H37.63Z"/><path class="cls-1" d="M49,41.21H60.23V30H49ZM51,32h7.22v7.22H51Z"/><path class="cls-1" d="M49,54.85H60.23V43.63H49Zm2-9.22h7.22v7.22H51Z"/><path class="cls-1" d="M49,68.49H60.23V57.27H49Zm2-9.22h7.22v7.22H51Z"/><path class="cls-1" d="M8.86,68.49H20.08V57.27H8.86Zm2-9.22h7.22v7.22H10.86Z"/><path class="cls-1" d="M22.24,68.49H33.46V57.27H22.24Zm2-9.22h7.22v7.22H24.24Z"/></g></g></svg>