<svg xmlns="http://www.w3.org/2000/svg" viewBox="0 0 40 40"><defs><style>.cls-1{fill:#003082;}</style></defs><title>klok</title><g id="Laag_2" data-name="Laag 2"><g id="Laag_1-2" data-name="Laag 1"><g id="VRM2-OPDR-1-Huisstijl-toepassen-op-het-web"><g id="Artboard"><g id="icons"><g id="download"><path id="Shape" class="cls-1" d="M20,40A20,20,0,1,1,40,20,20.06,20.06,0,0,1,20,40ZM20,2A18,18,0,1,0,38,20,18.05,18.05,0,0,0,20,2Z"/><path id="Shape-2" data-name="Shape" class="cls-1" d="M27,28a.91.91,0,0,1-.7-.3L19,20.4V7a1,1,0,0,1,2,0V19.6l6.7,6.7a1,1,0,0,1,0,1.4A.91.91,0,0,1,27,28Z"/></g></g></g></g></g></g></svg>