<svg xmlns="http://www.w3.org/2000/svg" viewBox="0 0 51.2 20"><defs><style>.cls-1{fill:#003082;}</style></defs><title>nslogo</title><g id="Laag_2" data-name="Laag 2"><g id="nslogo"><path class="cls-1" d="M25.4,18.4a5.58,5.58,0,0,0,4,1.6H41.2l10-10L41.2,0H35.6l8,8H32.8a2.84,2.84,0,0,1-1.2-.4l-5.8-6a5.58,5.58,0,0,0-4-1.6H10L0,10,10,20h5.6l-8-8H18.4a2.84,2.84,0,0,1,1.2.4Zm-3-8.8a5.58,5.58,0,0,0-4-1.6H7.6l4-4H21.8a2.84,2.84,0,0,1,1.2.4l5.8,6a5.58,5.58,0,0,0,4,1.6H43.6l-4,4H29.4a2.84,2.84,0,0,1-1.2-.4Z"/></g></g></svg>