<?xml version="1.0" encoding="utf-8"?>
<!-- Generator: Adobe Illustrator 21.0.2, SVG Export Plug-In . SVG Version: 6.00 Build 0)  -->
<svg version="1.1" id="Layer_1" xmlns="http://www.w3.org/2000/svg" xmlns:xlink="http://www.w3.org/1999/xlink" x="0px" y="0px"
	 viewBox="0 0 512 512" style="enable-background:new 0 0 512 512;" xml:space="preserve">
<style type="text/css">
	.st0{fill:#003082;}
</style>
<g>
	<g>
		<path class="st0" d="M486.5,420.1L380.9,314.5l42.7-15.5c3.6-1.3,5.8-5.1,5.1-8.9l-11.4-64.9l32.9-57.1c1.9-3.4,1.2-7.6-1.8-10.1
			L398,115.7l-11.4-64.9c-0.7-3.8-4-6.6-7.9-6.6h-65.9L262.4,1.9c-3-2.5-7.3-2.5-10.3,0l-50.5,42.3h-65.9c-3.9,0-7.2,2.8-7.9,6.6
			l-11.4,64.9L66,158c-3,2.5-3.7,6.8-1.8,10.1l32.9,57.1l-11.4,64.9c-0.7,3.8,1.5,7.6,5.1,8.9l40.9,14.9L25.5,420.1
			c-2.2,2.2-2.9,5.5-1.9,8.4c1.1,2.9,3.7,5,6.8,5.2l65.5,5.5l5.5,65.5c0.3,3.1,2.3,5.8,5.2,6.8c0.9,0.3,1.8,0.5,2.7,0.5
			c2.1,0,4.1-0.8,5.6-2.3L256,368.7l140.9,140.9c1.5,1.5,3.6,2.3,5.6,2.3c0.9,0,1.9-0.2,2.7-0.5c2.9-1.1,5-3.7,5.2-6.8l5.5-65.5
			l65.5-5.5c3.1-0.3,5.8-2.3,6.8-5.2C489.4,425.6,488.7,422.3,486.5,420.1z M115.9,486.2l-4.6-55.1c-0.3-3.9-3.4-7-7.3-7.3L49,419.2
			l99.3-99.3l4.5,1.6l32.9,57.1c1.5,2.5,4.1,4,6.9,4c0.9,0,1.8-0.2,2.7-0.5l38.9-14.2L115.9,486.2z M263.7,344.9l-3.8-1.4
			c-1.8-0.6-3.7-0.6-5.5,0l-5.6,2l-52.7,19.2l-31-53.8c-0.9-1.6-2.4-2.9-4.2-3.5l-12-4.4l-46.4-16.9l10.8-61.1
			c0.3-1.9,0-3.8-0.9-5.4l-31-53.8l47.6-39.9c1.4-1.2,2.4-2.9,2.7-4.7l10.8-61.1h62.1c1.9,0,3.7-0.7,5.1-1.9l47.6-39.9l47.6,39.9
			c1.4,1.2,3.3,1.9,5.1,1.9H372l10.8,61.1c0.3,1.8,1.3,3.5,2.7,4.7l47.6,39.9l-31,53.8c-0.9,1.6-1.3,3.5-0.9,5.4l10.8,61.1
			l-48.2,17.5l-10.2,3.7c-1.8,0.6-3.2,1.9-4.2,3.5l-31,53.8L263.7,344.9C263.8,344.9,263.7,344.9,263.7,344.9z M407.9,423.8
			c-3.9,0.3-7,3.4-7.3,7.3l-4.6,55.1L276.3,366.5l42.8,15.6c0.9,0.3,1.8,0.5,2.7,0.5c2.8,0,5.5-1.5,6.9-4l32.9-57.1l2.6-1l98.7,98.7
			L407.9,423.8z"/>
	</g>
</g>
</svg>
